<?xml version="1.0" standalone="no"?>
<!DOCTYPE svg PUBLIC "-//W3C//DTD SVG 20010904//EN"
 "http://www.w3.org/TR/2001/REC-SVG-20010904/DTD/svg10.dtd">
<svg version="1.0" xmlns="http://www.w3.org/2000/svg"
 width="400.000000pt" height="400.000000pt" viewBox="0 0 400.000000 400.000000"
 preserveAspectRatio="xMidYMid meet">
<metadata>
Created by potrace 1.14, written by Peter Selinger 2001-2017
</metadata>
<g transform="translate(0.000000,400.000000) scale(0.100000,-0.100000)"
fill="#000000" stroke="none">
<path d="M1049 3256 c-2 -2 -29 -6 -59 -10 -317 -36 -652 -295 -820 -635 -52
-105 -102 -254 -115 -346 -3 -23 -8 -52 -11 -65 -12 -53 -12 -329 1 -420 41
-306 171 -566 373 -750 212 -192 436 -280 717 -282 127 -1 160 3 240 25 157
45 268 127 400 295 27 35 50 60 51 55 3 -13 52 -178 81 -273 14 -47 30 -89 35
-95 5 -5 34 -10 63 -10 l55 0 0 466 c0 301 4 477 11 496 16 47 67 65 191 67
l103 2 2 67 2 66 -514 0 -513 0 1 -67 2 -66 141 -2 c148 -2 203 -15 224 -54
14 -25 10 -346 -5 -415 -34 -159 -144 -301 -285 -368 -89 -42 -160 -58 -261
-58 -337 -1 -547 184 -643 566 -13 55 -28 124 -31 154 -4 30 -9 63 -12 75 -12
48 -10 554 2 656 36 289 103 453 244 600 231 240 638 240 871 0 42 -43 102
-123 141 -190 50 -84 119 -231 119 -254 0 -8 4 -17 8 -20 4 -2 21 -45 37 -95
l28 -90 60 0 59 1 -7 106 c-3 59 -8 132 -10 162 -2 30 -7 109 -11 175 -3 66
-8 140 -9 165 -2 25 -6 97 -10 160 -7 107 -11 167 -14 198 -1 13 -85 17 -115
6 -9 -4 -39 -47 -66 -98 -77 -143 -63 -137 -156 -73 -171 118 -305 165 -485
172 -59 2 -108 3 -110 1z"/>
<path d="M2802 3239 c-319 -69 -535 -338 -546 -679 -11 -348 132 -528 521
-656 119 -39 192 -58 428 -114 238 -56 318 -92 407 -183 62 -65 92 -137 95
-233 4 -132 -29 -221 -117 -317 -103 -112 -237 -167 -411 -167 -290 0 -548
166 -703 453 -42 77 -103 252 -112 321 -4 25 -9 46 -13 47 -3 0 -34 2 -69 2
l-62 2 0 -35 c-2 -503 2 -905 9 -909 8 -5 50 -6 111 -2 8 1 51 46 95 102 43
55 83 103 87 105 4 3 31 -13 60 -34 180 -133 379 -193 618 -187 310 7 529 135
672 390 63 112 89 234 83 390 -6 172 -52 290 -155 395 -128 132 -270 193 -685
297 -248 61 -369 99 -441 137 -63 33 -73 42 -116 98 -51 67 -71 143 -66 248 6
108 39 182 118 261 97 98 203 138 363 137 157 -1 280 -43 390 -133 136 -110
257 -324 322 -567 l18 -68 62 0 63 0 -5 442 c-2 244 -7 445 -9 448 -3 3 -33 5
-66 5 l-60 1 -73 -102 -72 -103 -44 32 c-24 17 -46 34 -49 37 -6 7 -56 37
-114 70 -144 80 -358 107 -534 69z"/>
</g>
</svg>
